# xmcd
#
# Track frame offsets: 
#        150
#        49501
#        78896
#        118575
#        162113
#        208579
#        247560
#        285604
#
# Disc length: 4356 seconds
#
# Revision: 3
# Processed by: cddbd v1.5.2PL0 Copyright (c) Steve Scherf et al.
# Submitted via: ExactAudioCopy v1.3
#
DISCID=59110208
DTITLE=Philharmonica Symphony Orchestra - Favourite Waltzes
DYEAR=1997
DGENRE=Classical
TTITLE0=On the Beautiful Blue Danube, Op.314
TTITLE1=Voices of Spring, Op.410
TTITLE2=Viennese Bonbons, Op.307
TTITLE3=An Artists's Life, Op.316
TTITLE4=Morning Papers, Op.279
TTITLE5=Where the Lemon Trees Bloom, Op.364
TTITLE6=Vienna Blood, Op.354
TTITLE7=Parting with St Petersburg, Op.210
EXTD=YEAR: 0
EXTT0=
EXTT1=
EXTT2=
EXTT3=
EXTT4=
EXTT5=
EXTT6=
EXTT7=
PLAYORDER=
